/* XPM */
static char *collectible[] = {
/* columns rows colors chars-per-pixel */
"14 14 3 1 ",
"  c None",
". c #EFF5EF",
"X c #111111",
/* pixels */
"     .....    ",
"    .XXXXX.   ",
"   .XX...X.   ",
"  ..XXXXXX..  ",
" .XXXX...XXX. ",
".XX.........X.",
".XXX...XX...X.",
".XX.XX....X.X.",
".XX.XXXXXXX.X.",
".XX.X.XXXXX.X.",
".XX.XXXXXXX.X.",
".XXX.......XX.",
" .XXXXXXXXXX. ",
"  ..........  "
};
