/* XPM */
static char *enemie[] = {
/* columns rows colors chars-per-pixel */
"17 19 3 1 ",
"  c None",
". c #EFF5EF",
"X c #111111",
/* pixels */
"          ...    ",
"         .XXX.   ",
"   ... ..XXXXX.. ",
" ..XXX..XXXXXXXX.",
".XXXXXX.X.....X. ",
" .XXXXXXX..X..X. ",
".XX...XXXX...X.  ",
".X..X..XXXXXX.   ",
".X..X..XXXXX.    ",
" .X...XXXXXX.    ",
"  .XXXXXXXXXX.   ",
"    .XXXXXXXXX.  ",
"    .XXX.XX.XX.  ",
"    .XXXXXXXXX.  ",
"   .XXXXXXXXXX.  ",
"   .XXX....XXXX. ",
"  .XXX.   .XXXX. ",
"  .XX.     .XXX. ",
"  .XX.     .XXX. "
};
