/* XPM */
static char *exit[] = {
/* columns rows colors chars-per-pixel */
"16 16 2 1 ",
"  c #111111",
". c #EFF5EF",
/* pixels */
" .......... ... ",
"..  .          .",
". ....  ..     .",
".           .. .",
"     ...    ..  ",
".         . .. .",
". ..     .. .. .",
".        .. .. .",
".      . .. .. .",
".     .. .. .. .",
".   . .. .. ..  ",
".  .. .. ..  . .",
"   .. .. .. .. .",
".  .. .. ..    .",
".              .",
" ... ..... .... "
};
