/* XPM */
static char *exit[] = {
/* columns rows colors chars-per-pixel */
"32 32 2 1 ",
"  c #111111",
". c #EFF5EF",
/* pixels */
"  ....................  ......  ",
"  ....................  ......  ",
"....    ..                    ..",
"....    ..                    ..",
"..  ........    ....          ..",
"..  ........    ....          ..",
"..                      ....  ..",
"..                      ....  ..",
"          ......        ....    ",
"          ......        ....    ",
"..                  ..  ....  ..",
"..                  ..  ....  ..",
"..  ....          ....  ....  ..",
"..  ....          ....  ....  ..",
"..                ....  ....  ..",
"..                ....  ....  ..",
"..            ..  ....  ....  ..",
"..            ..  ....  ....  ..",
"..          ....  ....  ....  ..",
"..          ....  ....  ....  ..",
"..      ..  ....  ....  ....    ",
"..      ..  ....  ....  ....    ",
"..    ....  ....  ....    ..  ..",
"..    ....  ....  ....    ..  ..",
"      ....  ....  ....  ....  ..",
"      ....  ....  ....  ....  ..",
"..    ....  ....  ....        ..",
"..    ....  ....  ....        ..",
"..                            ..",
"..                            ..",
"  ......  ..........  ........  ",
"  ......  ..........  ........  "
};
