/* XPM */
static char *player[] = {
/* columns rows colors chars-per-pixel */
"32 32 3 1 ",
"  c None",
". c #EFF5EF",
"X c #111111",
/* pixels */
"              ..                ",
"            ..XX..              ",
"            ..XX..              ",
"           .XX..XX.             ",
"           .XX....X..           ",
"           .XX....X..           ",
"           .XX.X...XX.          ",
"            ..X......X.         ",
"            ..X.......X..       ",
"            ..X.......X..       ",
"           .XX.........XX.      ",
"           .XX...........X..    ",
"           .XX...........X..    ",
"          .X....XXXXXXXXX.XX.   ",
"        ..X...XXXXXXXXXXXXXX.   ",
"        ..XXXXXX..XXX.XXXX..    ",
"        ..XXXXXX..XXX.XXXX..    ",
"          .XXXXX..XXX.XXX.      ",
"          .XXXXXXXXXXXX..       ",
"       ....X..XXXXXXXX.         ",
"       ....X..XXXXXXXX.         ",
"     ..XXXX....XXXXXX.X..       ",
"    .XX................XX.      ",
"    .XX................XX.      ",
"     ..X....XX...........X..    ",
"       .XX............XXX.      ",
"        ..X...........X..       ",
"        ..X...........X..       ",
"          .XXXX...XXXX.         ",
"           ...XXXXX...          ",
"           ...XXXXX...          ",
"              .XXX.             "
};
