/* XPM */
static char *wall[] = {
/* columns rows colors chars-per-pixel */
"32 32 3 1 ",
"  c None",
". c #ffffff",
/*". c #ffffff",*/
"X c #ffffff",
/*"X c #EFF5EF",*/
/* pixels */
"       ..................       ",
"       ..................       ",
"     ..XXXXXXXXXXXXXXXXXX.      ",
"    .XXXXXXXXXXXXXXXXXXXXX..    ",
"    .XXXXXXXXXXXXXXXXXXXXX..    ",
"    .XXXXXXXX.XXXXXXXXXXXX..    ",
"    .XXXXXX..XXXXXXXXXXXXX..    ",
"    .XXXXXX..XXXXXXXXXXXXX..    ",
"    .XXXXXX..XXXXXXXXXXXXX..    ",
"    .XXXXXXXXXXXXXXXXXXXXX..    ",
"    .XXXXXXXXXXXXXXXXXXXXX..    ",
"    .XXXXXXXXXXXXXXXXXXXXX..    ",
"    .XXXXXXXXXXXXXXXXXXXXX..    ",
"    .XXXXXXXXXXXXXXXXXXXXX..    ",
"    .XXXXXXXXXXXXXXXXXXXXX..    ",
"    .XXXXXXXXXXXXXXXXXXXXX..    ",
"    .XXXXXXXXXXXXXXXXXXXXX..    ",
"    .XXXXXXXXXXXXXXXXXXXXX..    ",
"    .XXXXXXXXXXXXXXXXXXXXX..    ",
"    .XXXXXXXXXXXXXXXXXXXXX..    ",
"    .XX.XXXXX.XXXXX.XXXXXX..    ",
"    .XXXXX.XXXXX.XXXXX.XXX..    ",
"    .XXXXX.XXXXX.XXXXX.XXX..    ",
"    ...X..X..X..X..X..X..X..    ",
"    .XX....XX....XX....XX...    ",
"    .XX....XX....XX....XX...    ",
"    ....XX....XX....XX......    ",
"    .XX....XX....XX....XX...    ",
"    .XX....XX....XX....XX...    ",
"    ......X...........X.....    ",
"    ........................    ",
"    ........................    "
};
