/* XPM */
static char *collectible1755186751[] = {
/* columns rows colors chars-per-pixel */
"32 32 3 1 ",
"  c #111111",
". c #EFF5EF",
"X c None",
/* pixels */
"XXXXXXXXXXX............XXXXXXXXX",
"XXXXXXXXXXX............XXXXXXXXX",
"XXXXXXXXX..            ..XXXXXXX",
"XXXXXXXXX..            ..XXXXXXX",
"XXXXXXXXX..            ..XXXXXXX",
"XXXXXXX..     .......  ..XXXXXXX",
"XXXXXXX..     .......  ..XXXXXXX",
"XXXXX....              ....XXXXX",
"XXXXX....              ....XXXXX",
"XX...         .......      ...XX",
"XX...         .......      ...XX",
"..     ....................   ..",
"..     ....................   ..",
"..     ....................   ..",
"..       .......     ......   ..",
"..       .......     ......   ..",
"..     ..     .........  ..   ..",
"..     ..     .........  ..   ..",
"..     ..                ..   ..",
"..     ..                ..   ..",
"..     ..                ..   ..",
"..     ..  ...           ..   ..",
"..     ..  ...           ..   ..",
"..     ..                ..   ..",
"..     ..                ..   ..",
"..       ................     ..",
"..       ................     ..",
"XX...                      ...XX",
"XX...                      ...XX",
"XX...                      ...XX",
"XXXXX......................XXXXX",
"XXXXX......................XXXXX"
};
