/* XPM */
static char *enemie1755186792[] = {
/* columns rows colors chars-per-pixel */
"32 32 3 1 ",
"  c #111111",
". c #EFF5EF",
"X c None",
/* pixels */
"XXXXXXXXXXXXXXXXXXX.....XXXXXXXX",
"XXXXXXXXXXXXXXXXXXX.....XXXXXXXX",
"XXXXXXXXXXXXXXXXX..     ..XXXXXX",
"XXXXXXX.....XX...         ...XXX",
"XXXXXXX.....XX...         ...XXX",
"XXXX...     ....             ..X",
"XXXX...     ....             ..X",
"XX..          .. .........  .XXX",
"XXXX.            .... ....  .XXX",
"XXXX.            .... ....  .XXX",
"XX..   .....       .....  ..XXXX",
"XX..   .....       .....  ..XXXX",
"XX.. ....  ...          ..XXXXXX",
"XX.. ....  ...        ..XXXXXXXX",
"XX.. ....  ...        ..XXXXXXXX",
"XXXX.  .....          ..XXXXXXXX",
"XXXX.  .....          ..XXXXXXXX",
"XXXXX..                 ..XXXXXX",
"XXXXX..                 ..XXXXXX",
"XXXXXXXXX..               ..XXXX",
"XXXXXXXXX..     .    .    ..XXXX",
"XXXXXXXXX..     .    .    ..XXXX",
"XXXXXXXXX..               ..XXXX",
"XXXXXXXXX..               ..XXXX",
"XXXXXXX..                 ..XXXX",
"XXXXXXX..     .......       .XXX",
"XXXXXXX..     .......       .XXX",
"XXXXX..     ..XXXXX..       .XXX",
"XXXXX..     ..XXXXX..       .XXX",
"XXXXX..    .XXXXXXXXX.      .XXX",
"XXXXX..    .XXXXXXXXX.      .XXX",
"XXXXX..    .XXXXXXXXX.      .XXX"
};
