/* XPM */
static char *player1755186792[] = {
/* columns rows colors chars-per-pixel */
"32 32 3 1 ",
"  c #111111",
". c #EFF5EF",
"X c None",
/* pixels */
"XXXXXXXXXXXXX..XXXXXXXXXXXXXXXXX",
"XXXXXXXXXXX..  ..XXXXXXXXXXXXXXX",
"XXXXXXXXXXX..  ..XXXXXXXXXXXXXXX",
"XXXXXXXXXX.  ..  .XXXXXXXXXXXXXX",
"XXXXXXXXXX.  .... ..XXXXXXXXXXXX",
"XXXXXXXXXX.  .... ..XXXXXXXXXXXX",
"XXXXXXXXXX.  . ...  .XXXXXXXXXXX",
"XXXXXXXXXXX.. ...... .XXXXXXXXXX",
"XXXXXXXXXXX.. ....... ..XXXXXXXX",
"XXXXXXXXXXX.. ....... ..XXXXXXXX",
"XXXXXXXXXX.  .........  .XXXXXXX",
"XXXXXXXXXX.  ........... ..XXXXX",
"XXXXXXXXXX.  ........... ..XXXXX",
"XXXXXXXXX. ....         .  .XXXX",
"XXXXXXX.. ...              .XXXX",
"XXXXXXX..      ..   .    ..XXXXX",
"XXXXXXX..      ..   .    ..XXXXX",
"XXXXXXXXX.     ..   .   .XXXXXXX",
"XXXXXXXXX.            ..XXXXXXXX",
"XXXXXX.... ..        .XXXXXXXXXX",
"XXXXXX.... ..        .XXXXXXXXXX",
"XXXX..    ....      . ..XXXXXXXX",
"XXX.  ................  .XXXXXXX",
"XXX.  ................  ...XXXXX",
"XXXX.. ....  ........... ..XXXXX",
"XXXXXX.  ............   .XXXXXXX",
"XXXXXXX.. ........... ..XXXXXXXX",
"XXXXXXX.. ........... ..XXXXXXXX",
"XXXXXXXXX.    ...    .XXXXXXXXXX",
"XXXXXXXXXX...     ...XXXXXXXXXXX",
"XXXXXXXXXX...     ...XXXXXXXXXXX",
"XXXXXXXXXXXXX.   .XXXXXXXXXXXXXX"
};
