/* XPM */
static char *collectible[] = {
/* columns rows colors chars-per-pixel */
"32 32 3 1 ",
"  c None",
". c #EFF5EF",
"X c #111111",
/* pixels */
"           ............         ",
"           ............         ",
"         ..XXXXXXXXXXXX..       ",
"         ..XXXXXXXXXXXX..       ",
"         ..XXXXXXXXXXXX..       ",
"       ..XXXXX.......XX..       ",
"       ..XXXXX.......XX..       ",
"     ....XXXXXXXXXXXXXX....     ",
"     ....XXXXXXXXXXXXXX....     ",
"  ...XXXXXXXXX.......XXXXXX...  ",
"  ...XXXXXXXXX.......XXXXXX...  ",
"..XXXXX....................XXX..",
"..XXXXX....................XXX..",
"..XXXXX....................XXX..",
"..XXXXXXX.......XXXXX......XXX..",
"..XXXXXXX.......XXXXX......XXX..",
"..XXXXX..XXXXX.........XX..XXX..",
"..XXXXX..XXXXX.........XX..XXX..",
"..XXXXX..XXXXXXXXXXXXXXXX..XXX..",
"..XXXXX..XXXXXXXXXXXXXXXX..XXX..",
"..XXXXX..XXXXXXXXXXXXXXXX..XXX..",
"..XXXXX..XX...XXXXXXXXXXX..XXX..",
"..XXXXX..XX...XXXXXXXXXXX..XXX..",
"..XXXXX..XXXXXXXXXXXXXXXX..XXX..",
"..XXXXX..XXXXXXXXXXXXXXXX..XXX..",
"..XXXXXXX................XXXXX..",
"..XXXXXXX................XXXXX..",
"  ...XXXXXXXXXXXXXXXXXXXXXX...  ",
"  ...XXXXXXXXXXXXXXXXXXXXXX...  ",
"  ...XXXXXXXXXXXXXXXXXXXXXX...  ",
"     ......................     ",
"     ......................     "
};
