/* XPM */
static char *player[] = {
/* columns rows colors chars-per-pixel */
"18 23 3 1 ",
"  c None",
". c #EFF5EF",
"X c #111111",
/* pixels */
"       ..         ",
"      .XX.        ",
"     .X..X.       ",
"     .X...X.      ",
"     .X.X..X.     ",
"      .X....X.    ",
"      .X.....X.   ",
"     .X.......X.  ",
"     .X........X. ",
"    .X...XXXXXX.X.",
"   .X..XXXXXXXXXX.",
"   .XXXXX.XX.XXX. ",
"    .XXXX.XX.XX.  ",
"    .XXXXXXXXX.   ",
"  ...X.XXXXXX.    ",
" .XXX...XXXX.X.   ",
".X............X.  ",
" .X...X........X. ",
"  .X.........XX.  ",
"   .X........X.   ",
"    .XXX..XXX.    ",
"     ..XXXX..     ",
"       .XX.       "
};
