/* XPM */
static char *wall[] = {
/* columns rows colors chars-per-pixel */
"16 21 3 1 ",
"  c None",
". c #111111",
"X c #EFF5EF",
/* pixels */
"  ............  ",
" .XXXXXXXXXXXX. ",
".XXXXXXXXXXXXXX.",
".XXXXX.XXXXXXXX.",
".XXXX.XXXXXXXXX.",
".XXXX.XXXXXXXXX.",
".XXXXXXXXXXXXXX.",
".XXXXXXXXXXXXXX.",
".XXXXXXXXXXXXXX.",
".XXXXXXXXXXXXXX.",
".XXXXXXXXXXXXXX.",
".XXXXXXXXXXXXXX.",
".XXXXXXXXXXXXXX.",
".X.XXX.XXX.XXXX.",
".XXX.XXX.XXX.XX.",
"..X.X.X.X.X.X.X.",
".X...X...X...X..",
"...X...X...X....",
".X...X...X...X..",
"....X.......X...",
"................"
};
